<?xml version="1.0" encoding="UTF-8" standalone="no"?><svg xmlns:svg="http://www.w3.org/2000/svg" xmlns="http://www.w3.org/2000/svg" xmlns:xlink="http://www.w3.org/1999/xlink" version="1.0" width="256px" height="256px" viewBox="0 0 128 128" xml:space="preserve"><rect x="0" y="0" width="100%" height="100%" fill="#FFFFFF" /><g><path d="M8.64-11.68c12.46.14 34 3.7 46.66 24.64C72.44 39.36 64 64 64 64S41.62 41.42 9.3 46.47A56.83 56.83 0 0 0-29.16 74.4a94.76 94.76 0 0 1-.6-10.4A93.63 93.63 0 0 1 8.66-11.68z" fill="#ffcb02"/><path d="M103.52 31.03C89.2 59.07 63.62 64.1 63.62 64.1S72.03 33.43 51.5 8A56.8 56.8 0 0 0 8.18-11.34a93.85 93.85 0 0 1 93.2-10.68c6.12 10.76 14.1 31.4 2.14 53.05z" fill="#ff9e02"/><path d="M112.25 81.77c-31.44 1.62-48.57-18-48.57-18s30.74-8.07 42.5-38.56a56.8 56.8 0 0 0-4.96-47.27 93.84 93.84 0 0 1 55.94 75.4c-6.24 10.68-20.13 27.97-44.9 28.45z" fill="#ff4b42"/><path d="M72.8 114.5c-17.13-26.4-8.7-51.06-8.7-51.06s22.36 22.6 54.65 17.54a56.8 56.8 0 0 0 38.4-27.8 94.74 94.74 0 0 1 .6 10.82 93.62 93.62 0 0 1-37.7 75.18c-12.34-.03-34.4-3.35-47.25-24.67z" fill="#c063d6"/><path d="M24.25 96.83C38.57 68.8 64.13 63.77 64.13 63.77s-8 30.2 12.53 55.62a57.53 57.53 0 0 0 43.52 19.67 93.86 93.86 0 0 1-93.75 10.85c-6.14-10.75-14.15-31.4-2.18-53.1z" fill="#17a4f6"/><path d="M-29.24 73.98C-23.06 63.2-9.5 46.28 14.94 45.8c31.45-1.63 49.2 18.23 49.2 18.23s-30.32 8.25-42.08 38.74a57.12 57.12 0 0 0 4.74 47.32 93.84 93.84 0 0 1-56.04-76.13z" fill="#4fca24"/><animateTransform attributeName="transform" type="rotate" from="0 64 64" to="360 64 64" dur="3600ms" repeatCount="indefinite"></animateTransform></g></svg>